<svg width="100" height="100" viewBox="0 0 100 100" fill="none" xmlns="http://www.w3.org/2000/svg">
<g id="logo">
<mask id="mask0_0_14405" style="mask-type:luminance" maskUnits="userSpaceOnUse" x="0" y="0" width="100" height="100">
<circle id="Mask" cx="50" cy="50" r="50" fill="white"/>
</mask>
<g mask="url(#mask0_0_14405)">
<g id="Asset 1">
<path id="Path" fill-rule="evenodd" clip-rule="evenodd" d="M77.5583 6.65228L70.8073 38.1521C70.5144 39.4847 71.1001 40.7734 72.2717 41.4617L100.198 57.5119C101.37 58.1855 101.956 59.4742 101.663 60.8068C101.384 62.1248 100.33 63.0767 98.9828 63.2085L66.9412 66.5181C65.5939 66.6645 64.5395 67.6164 64.2613 68.9344L57.6274 100.478C57.3492 101.796 56.2948 102.748 54.9475 102.88C53.6002 103.026 52.3701 102.309 51.8283 101.079L38.7802 71.6143L39.7614 73.8109C37.9601 69.1687 38.8681 64.38 42.4413 59.4742L45.5166 54.8466C46.1609 53.8654 46.9664 53.2064 48.0354 52.7232L51.8283 51.0977C53.1023 50.5558 54.0396 49.7504 54.8157 48.6081L61.801 38.0789C62.2111 37.4638 62.0353 36.6438 61.4349 36.2484L60.7906 35.8237C60.1755 35.4136 59.3554 35.5894 58.96 36.1898L51.799 46.968C51.4768 47.4512 50.8178 47.583 50.3345 47.2609C49.8513 46.9387 49.7195 46.2797 50.0417 45.7964L57.2027 35.0182C57.6128 34.4032 57.437 33.5831 56.8366 33.1877L56.1923 32.763C55.5772 32.3676 54.7571 32.5287 54.3617 33.1438L47.2007 43.922C46.8785 44.4052 46.2342 44.537 45.7509 44.2149C45.2676 43.8927 45.1358 43.2337 45.458 42.7504L52.6191 31.9722C53.0145 31.3718 52.8534 30.5517 52.2383 30.1417L51.594 29.717C50.9789 29.307 50.1735 29.4827 49.7634 30.0831L42.7635 40.6124C42.002 41.7693 41.6358 42.9554 41.6212 44.332L41.5773 48.5935C41.5773 49.765 41.2697 50.7608 40.6254 51.742L37.6087 56.2817C35.1045 59.4888 33.5083 62.9156 32.82 66.562C32.3953 68.7587 30.6673 70.3549 28.4414 70.5892L3.59002 73.2545C2.24275 73.4009 1.01263 72.6833 0.470788 71.4386C-0.0856948 70.2084 0.221835 68.8172 1.21765 67.9093L25.205 46.3968C26.2154 45.5035 26.5083 44.0977 25.9518 42.8676L12.7866 13.4619C12.2301 12.2171 12.523 10.8405 13.5335 9.9326C14.5293 9.0393 15.9498 8.87821 17.1213 9.56649L45.004 25.7191C46.1756 26.4074 47.5961 26.2463 48.6065 25.3384L72.4913 3.72342C73.4872 2.83012 74.9077 2.66904 76.0792 3.34267C77.2507 4.03095 77.8219 5.31965 77.5436 6.65228H77.5583Z" fill="url(#paint0_linear_0_14405)"/>
<path id="Path_2" fill-rule="evenodd" clip-rule="evenodd" d="M77.1629 44.2734L100.198 57.5119C101.37 58.1855 101.956 59.4742 101.663 60.8068C101.385 62.1248 100.33 63.0767 98.9829 63.2085L66.9412 66.5181C65.5939 66.6645 64.5395 67.6164 64.2613 68.9344L57.6274 100.478C57.3492 101.796 56.2948 102.748 54.9475 102.88C53.6003 103.026 52.3701 102.309 51.8283 101.079L40.4058 75.3193L77.1775 44.2588L77.1629 44.2734Z" fill="#A70C00"/>
<path id="Path_3" fill-rule="evenodd" clip-rule="evenodd" d="M37.3597 56.6039C34.9727 59.7231 33.4497 63.0474 32.7907 66.5767C32.366 68.7733 30.638 70.3695 28.4121 70.6038L3.56072 73.2691C2.21345 73.4155 0.983329 72.698 0.441491 71.4678C-0.114992 70.2231 0.192538 68.8319 1.18835 67.9386L25.1757 46.4261C26.1861 45.5328 26.479 44.127 25.9225 42.8969L12.7866 13.4619C12.2301 12.2171 12.523 10.8405 13.5335 9.9326C14.5293 9.0393 15.9498 8.87821 17.1213 9.56649L43.3492 24.7673L37.3597 56.6039Z" fill="#F75C4C"/>
<path id="Shape" fill-rule="evenodd" clip-rule="evenodd" d="M63.0604 74.631L57.6128 100.493C57.4517 101.298 56.9977 101.957 56.3533 102.397C55.9433 102.558 55.5479 102.719 55.1672 102.88C55.0939 102.88 55.0207 102.909 54.9328 102.909C53.5856 103.056 52.3555 102.338 51.8136 101.108L38.7656 71.6436L39.7467 73.8402C37.9455 69.198 38.8534 64.4093 42.4266 59.5035L43.071 58.5223L63.0604 74.631ZM38.5313 54.8759L37.594 56.2964C35.0899 59.5035 33.4936 62.9302 32.8053 66.5767C32.3807 68.7733 30.6526 70.3695 28.4267 70.6038L3.57537 73.2691C2.2281 73.4155 0.997978 72.698 0.456139 71.4678C-0.100343 70.2231 0.207187 68.8319 1.203 67.9386L25.1903 46.4261C25.6589 46.0014 25.9811 45.4743 26.1276 44.9178L38.5166 54.8905L38.5313 54.8759Z" fill="#A70C00"/>
<path id="Path_4" fill-rule="evenodd" clip-rule="evenodd" d="M77.5583 6.65228L70.8073 38.1521C70.5144 39.4847 71.1002 40.7734 72.2717 41.4617L100.198 57.5119C101.37 58.1855 101.956 59.4742 101.663 60.8068C101.385 62.1248 100.33 63.0767 98.9829 63.2085L75.4935 65.6394L57.5835 44.4199L61.7718 38.0935C62.1818 37.4785 62.0061 36.6584 61.4057 36.263L60.7613 35.8383C60.1462 35.4283 59.3262 35.604 58.9308 36.2044L55.2843 41.7107L53.8639 40.0266L57.1735 35.0475C57.5835 34.4325 57.4078 33.6124 56.8074 33.217L56.163 32.7923C55.5479 32.3969 54.7279 32.558 54.3325 33.1731L51.5647 37.3174L50.1589 35.6479L52.5752 32.0015C52.9706 31.4011 52.8095 30.581 52.1944 30.171L51.5501 29.7463C50.935 29.3363 50.1296 29.512 49.7195 30.1124L47.8451 32.9241L38.6924 22.0727L44.9894 25.7191C46.161 26.4074 47.5815 26.2463 48.5919 25.3384L72.4914 3.72342C73.4872 2.83012 74.9077 2.66904 76.0792 3.34267C77.2508 4.03095 77.8219 5.31965 77.5436 6.65228H77.5583Z" fill="#F75C4C"/>
<path id="Path_5" fill-rule="evenodd" clip-rule="evenodd" d="M42.412 59.5035L45.4873 54.8759C46.1317 53.8947 46.9371 53.2357 48.0062 52.7525L51.799 51.1269C53.0731 50.5851 54.0103 49.7797 54.7865 48.6374L61.7718 38.1082C62.1818 37.4931 62.0061 36.673 61.4057 36.2777L60.7613 35.853C60.1463 35.4429 59.3262 35.6187 58.9308 36.2191L51.7697 46.9973C51.4476 47.4805 50.7886 47.6123 50.3053 47.2901C49.822 46.968 49.6902 46.309 50.0124 45.8257L57.1735 35.0475C57.5835 34.4325 57.4078 33.6124 56.8074 33.217L56.163 32.7923C55.548 32.3969 54.7279 32.558 54.3325 33.1731L47.1714 43.9513C46.8493 44.4345 46.2049 44.5663 45.7216 44.2441C45.2384 43.922 45.1066 43.263 45.4288 42.7797L52.5898 32.0015C52.9852 31.4011 52.8241 30.581 52.2091 30.171L51.5647 29.7463C50.9497 29.3363 50.1442 29.512 49.7342 30.1124L42.7342 40.6416C41.9727 41.7985 41.6066 42.9847 41.592 44.3613L41.548 48.6228C41.548 49.7943 41.2405 50.7901 40.5961 51.7713L37.5794 56.311C35.0753 59.5181 33.479 62.9449 32.7907 66.5913C32.3661 68.7879 30.638 70.3842 28.4121 70.6185L35.6171 69.8423C36.9644 69.6959 38.2091 70.4135 38.751 71.6582L39.7321 73.8549C37.9309 69.2126 38.8388 64.424 42.412 59.5181V59.5035Z" fill="white"/>
<path id="Path_6" fill-rule="evenodd" clip-rule="evenodd" d="M62.4894 77.2963L57.6128 100.493C57.3346 101.811 56.2802 102.763 54.9329 102.894C53.5856 103.041 52.3555 102.323 51.8137 101.093L38.7656 71.6289L39.7468 73.8256C37.9455 69.1833 38.8535 64.3947 42.4267 59.4888L45.502 54.8612C46.1463 53.8801 46.9518 53.2211 48.0208 52.7378L51.8137 51.1123C53.0877 50.5705 54.025 49.765 54.8011 48.6228L61.7864 38.0935C57.2467 48.4763 54.9768 53.6604 54.9768 53.6604C50.8325 57.4386 47.7719 53.9094 45.297 66.0641C42.5146 79.859 49.0459 83.1979 62.4894 77.267V77.2963Z" fill="#870000"/>
<path id="Path_7" fill-rule="evenodd" clip-rule="evenodd" d="M47.1566 43.9366C46.8344 44.4199 46.19 44.5517 45.7068 44.2295C45.2235 43.9073 45.0917 43.2483 45.4139 42.7651L50.1586 35.6333L52.5749 31.9869C52.9703 31.3865 52.8092 30.5664 52.1942 30.1563L51.5498 29.7317C50.9348 29.3216 50.1293 29.4973 49.7193 30.0978L47.8448 32.9095L42.7193 40.627C41.9578 41.7839 41.5917 42.9701 41.5771 44.3466L41.5332 48.6081C41.5332 49.7797 41.2256 50.7755 40.5813 51.7566L38.5018 54.8759L37.5646 56.2964C37.4913 56.3989 37.4181 56.5014 37.3302 56.6039C34.9725 59.6938 33.4495 62.9888 32.7759 66.4888C34.1524 62.3884 37.2424 58.3173 42.075 54.2462C42.5583 53.8361 42.9097 53.4261 43.2465 52.8843L56.1189 32.7923C55.5038 32.3969 54.6837 32.558 54.2883 33.1731L51.5206 37.3174L47.1273 43.9512L47.1566 43.9366Z" fill="#C5D3E2"/>
</g>
</g>
</g>
<defs>
<linearGradient id="paint0_linear_0_14405" x1="-nan" y1="-nan" x2="-nan" y2="-nan" gradientUnits="userSpaceOnUse">
<stop stop-color="#B71C0C"/>
<stop offset="1" stop-color="#E74C3C"/>
</linearGradient>
</defs>
</svg>
